<?xml version="1.0" encoding="UTF-8" standalone="no"?>
<!-- Created with Inkscape (http://www.inkscape.org/) -->

<svg
   xmlns:dc="http://purl.org/dc/elements/1.1/"
   xmlns:cc="http://creativecommons.org/ns#"
   xmlns:rdf="http://www.w3.org/1999/02/22-rdf-syntax-ns#"
   xmlns:svg="http://www.w3.org/2000/svg"
   xmlns="http://www.w3.org/2000/svg"
   xmlns:sodipodi="http://sodipodi.sourceforge.net/DTD/sodipodi-0.dtd"
   xmlns:inkscape="http://www.inkscape.org/namespaces/inkscape"
   version="1.1"
   id="svg2"
   width="17.912905"
   height="19.053858"
   viewBox="0 0 17.912905 19.053858"
   sodipodi:docname="plant_complete.svg"
   inkscape:version="0.92.4 (5da689c313, 2019-01-14)">
  <metadata
     id="metadata8">
    <rdf:RDF>
      <cc:Work
         rdf:about="">
        <dc:format>image/svg+xml</dc:format>
        <dc:type
           rdf:resource="http://purl.org/dc/dcmitype/StillImage" />
        <dc:title></dc:title>
      </cc:Work>
    </rdf:RDF>
  </metadata>
  <defs
     id="defs6" />
  <sodipodi:namedview
     pagecolor="#ffffff"
     bordercolor="#666666"
     borderopacity="1"
     objecttolerance="10"
     gridtolerance="10"
     guidetolerance="10"
     inkscape:pageopacity="0"
     inkscape:pageshadow="2"
     inkscape:window-width="1366"
     inkscape:window-height="705"
     id="namedview4"
     showgrid="false"
     inkscape:pagecheckerboard="true"
     inkscape:zoom="15.104"
     inkscape:cx="1.4140234"
     inkscape:cy="8.4977841"
     inkscape:window-x="-8"
     inkscape:window-y="-8"
     inkscape:window-maximized="1"
     inkscape:current-layer="svg2"
     fit-margin-top="0"
     fit-margin-left="0"
     fit-margin-right="0"
     fit-margin-bottom="0" />
  <g
     style="display:none"
     id="g155"
     inkscape:label="soil_cir"
     transform="matrix(0.0812086,0,0,0.0812086,-1.2453327,-18.338631)">
    <path
       style="display:inline;fill:#904823"
       d="M 363.36574,181.50028 C 346.23696,178.4747 331.30831,171.24864 322.12409,161.53769 312.57115,151.43686 312.5,151.10392 312.5,116.5 v -30 l 2.95032,-5.822732 C 321.69169,68.359327 337.73844,57.475425 356.5,52.834815 c 13.03233,-3.223504 36.19873,-3.232035 49,-0.01805 19.08857,4.792529 34.74574,15.419082 41.04968,27.860498 L 449.5,86.5 V 117 c 0,30.25335 -0.0196,30.53981 -2.42291,35.42291 -1.3326,2.7076 -5.02556,7.52556 -8.20658,10.70658 -7.00626,7.00626 -20.20986,13.78571 -32.87051,16.87751 -11.24926,2.74713 -31.51692,3.45701 -42.63426,1.49328 z"
       id="path145"
       inkscape:connector-curvature="0"
       sodipodi:nodetypes="ssscsssscscsss" />
    <path
       style="display:inline;fill:#8d4723"
       d="M 363.36574,181.50028 C 346.23696,178.4747 331.30831,171.24864 322.12409,161.53769 312.57115,151.43686 312.5,151.10392 312.5,116.5 v -30 l 2.95032,-5.822732 C 321.69169,68.359327 337.73844,57.475425 356.5,52.834815 c 13.03233,-3.223504 36.19873,-3.232035 49,-0.01805 19.08857,4.792529 34.74574,15.419082 41.04968,27.860498 L 449.5,86.5 V 117 c 0,30.25335 -0.0196,30.53981 -2.42291,35.42291 -1.3326,2.7076 -5.02556,7.52556 -8.20658,10.70658 -7.00626,7.00626 -20.20986,13.78571 -32.87051,16.87751 -11.24926,2.74713 -31.51692,3.45701 -42.63426,1.49328 z m 34.25327,-47.02683 c 16.81481,-2.8903 28.71069,-8.18094 38.24767,-17.0105 8.23539,-7.62453 11.55105,-14.47597 11.56817,-23.904397 0.0104,-5.726703 -0.49227,-8.025399 -2.66406,-12.182653 C 434.91023,62.500798 407.43436,50.822711 376.5,52.358726 c -23.18728,1.151341 -40.36863,7.635093 -52.33743,19.750655 -6.98634,7.071999 -9.62689,13.04641 -9.53631,21.576502 0.10025,9.441607 3.33159,16.208017 11.23426,23.524497 16.37447,15.15987 44.55442,21.93917 71.75849,17.26307 z"
       id="path147"
       inkscape:connector-curvature="0"
       sodipodi:nodetypes="ssscsssscscssssssssssss" />
    <path
       style="display:inline;fill:#703a22;fill-opacity:1"
       d="m 363.36574,181.50028 c -17.12878,-3.02558 -32.05743,-10.25164 -41.24165,-19.96259 -9.48092,-10.02468 -9.60503,-10.58534 -9.74823,-44.03769 -0.0683,-15.95 0.16743,-25.388229 0.5238,-20.973842 0.78671,9.745232 3.24069,14.444392 11.81151,22.618012 6.89443,6.57492 16.62805,11.76881 29.00051,15.47477 12.43816,3.72564 33.5663,4.44293 47.29297,1.60558 16.86418,-3.48588 29.03857,-9.42342 38.28608,-18.67239 6.89395,-6.89504 9.0663,-11.56262 9.79793,-21.05213 0.33923,-4.4 0.57056,5.275 0.51406,21.5 -0.10131,29.09446 -0.13603,29.56768 -2.52563,34.42291 -1.3326,2.7076 -5.02556,7.52556 -8.20658,10.70658 -7.00626,7.00626 -20.20986,13.78571 -32.87051,16.87751 -11.24926,2.74713 -31.51692,3.45701 -42.63426,1.49328 z M 329.43967,64.5 c -37.42306,187.93221 -18.71153,93.9661 0,0 z"
       id="path149"
       inkscape:connector-curvature="0"
       sodipodi:nodetypes="ssccsssscssssscc" />
  </g>
  <g
     style="display:none"
     id="g4675"
     inkscape:label="soil_2"
     transform="matrix(0.0812086,0,0,0.0812086,-0.55712472,-19.629021)">
    <path
       style="display:inline;fill:#904823"
       d="M 313.73424,283.76714 C 311.03177,280.56947 383.2308,241 384.72313,241 c 1.875,0 72.26697,43.84301 70.43513,45.81387 -57.70707,62.08664 -100.43475,45.45346 -141.42402,-3.04673 z"
       id="path4665"
       inkscape:connector-curvature="0"
       sodipodi:nodetypes="ssss" />
    <path
       style="display:inline;fill:#703a22"
       d="m 312.91102,338.1779 c 0,0 0.82322,-54.41076 0.72748,-54.62758 l 71.3962,42.98918 c 0.35984,0.12934 3.99146,38.35992 0.27066,54.43027 -25.47398,-14.95503 -45.00215,-26.68608 -72.39434,-42.79187 z"
       id="path4671"
       inkscape:connector-curvature="0"
       sodipodi:nodetypes="ccccc" />
    <path
       style="display:inline;fill:#492a1c"
       d="m 385,355.06809 v -25.9319 l 0.0347,-2.59669 c 0,0 65.12543,-37.48445 68.94068,-39.52631 C 455.98442,285.93797 456,286.13252 456,312.30341 v 26.37377 C 431.38881,354.1746 406.90616,369.00165 385.55537,381 385.24992,381 385,369.33064 385,355.06809 Z"
       id="path4673"
       inkscape:connector-curvature="0"
       sodipodi:nodetypes="scccsccs" />
  </g>
  <g
     inkscape:label="soil_2"
     id="g4687"
     style="display:inline"
     transform="matrix(0.0812086,0,0,0.0812086,-3.7160564,-15.988697)">
    <path
       sodipodi:nodetypes="ccscc"
       inkscape:connector-curvature="0"
       id="path4677"
       d="m 137.40405,418.2045 c 0,0 -68.852426,-32.79 -72.427128,-44.03463 C 74.521687,368.08009 137.8394,332 138.36408,332 c 0.4315,0 69.87706,41.65674 71.34143,42.90607 z"
       style="display:inline;fill:#904823" />
    <path
       sodipodi:nodetypes="ccccc"
       inkscape:connector-curvature="0"
       id="path4683"
       d="m 65.10964,388.37375 -0.132718,-14.20388 c 1.783353,1.05798 72.427128,44.03463 72.427128,44.03463 0,0 3.39933,11.19936 -0.44175,13.30835 z"
       style="display:inline;fill:#703a22" />
    <path
       inkscape:connector-curvature="0"
       id="path4685"
       d="m 136.9623,431.51285 0.44175,-13.30835 72.30137,-43.29843 c 0.0676,1.02904 0.26629,13.30558 0.0556,13.58756 z"
       style="display:inline;fill:#492a1c"
       sodipodi:nodetypes="ccccc" />
  </g>
  <g
     transform="matrix(0.07058175,0,0,0.07058175,-22.203849,-19.050381)"
     id="g66"
     style="display:inline"
     inkscape:label="Plant">
    <path
       style="display:inline;fill:#a2b345;fill-opacity:1"
       d="m 418.59593,473.45637 c -5.34502,-44.70573 1.74438,-75.26441 15.24999,-105.20243 l 4.52697,-15.59402 -2.51963,-8.89594 c -1.00983,-3.56537 -2.78479,-7.69277 -4.03682,-9.14641 l -2.27642,-2.64299 -21.83357,0.314 c -37.52315,0.53965 -49.77017,-2.63524 -64.63569,-16.75604 -9.35847,-8.88963 -14.12557,-15.03464 -22.32182,-28.77386 -4.21017,-7.05742 -6.33706,-11.64803 -6.1547,-13.2841 l 0.27865,-2.5 29.5,-0.7343 c 31.65272,-0.78789 35.47482,-0.45068 44.55876,3.93128 19.52969,9.42082 40.82691,36.9738 49.51012,64.05302 1.27863,3.9875 2.58256,7.25 2.89763,7.25 0.31506,0 3.19021,-1.95772 6.38923,-4.35048 12.88209,-9.6354 28.49523,-15.54255 43.24346,-16.36094 20.1575,-1.11856 26.21806,1.8798 50.6443,25.0554 10.04108,9.52696 20.169,19.02432 22.5065,21.10524 2.3375,2.08093 4.25,4.40048 4.25,5.15457 0,1.95816 -12.41673,7.94615 -22.5909,10.89451 -27.85638,8.07247 -41.17848,2.8602 -74.61045,-29.19133 -7.62032,-7.30567 -14.95352,-13.55872 -16.29599,-13.89566 -10.41215,-2.4689 -17.09718,32.47153 -24.86643,53.29937 -6.71819,24.35445 -8.52082,31.59945 -7.01619,75.93947 z"
       id="path80"
       inkscape:connector-curvature="0"
       sodipodi:nodetypes="cccsccsssccsssscsscssscccc" />
    <path
       style="display:inline;fill:#a2b345;fill-opacity:1"
       d="m 519.08877,388.34509 c -12.2925,-1.71528 -23.63795,-9.22815 -45.4573,-30.10146 -8.49661,-8.12822 -16.53068,-15.05022 -17.85348,-15.38223 -3.85904,-0.96855 -6.82404,0.28523 -12.28446,5.19462 l -5.12064,4.6039 v -3.71512 c 0,-3.22341 0.20276,-3.54683 1.53198,-2.44368 1.28058,1.06278 2.14214,0.75389 5.25,-1.88227 16.01397,-13.5834 41.889,-21.50836 59.42291,-18.19995 11.34623,2.14088 17.75394,6.61803 40.79448,28.50366 11.55034,10.97138 21.00063,20.46292 21.00063,21.0923 0,1.76988 -14.64189,8.22293 -23.52666,10.36879 -10.15012,2.45148 -16.49284,2.97514 -23.75746,1.96144 z m -81.63693,-45.45384 c 0.048,-1.16495 0.28494,-1.4019 0.60416,-0.60417 0.28887,0.72188 0.25335,1.58437 -0.0789,1.91667 -0.3323,0.33229 -0.56864,-0.25834 -0.52522,-1.3125 z m -2.40991,-5.98451 c -2.82111,-5.91593 -5.18927,-6.37219 -32.29371,-6.22178 -18.59961,0.10321 -25.591,-0.22681 -31.63962,-1.4935 -14.27766,-2.99 -24.6279,-9.83144 -36.18846,-23.92032 -6.60112,-8.04479 -19.54725,-28.87862 -19.54725,-31.45681 0,-1.34246 16.86964,-2.31459 43.5,-2.50674 17.0778,-0.12323 19.58895,0.0777 24.8215,1.98569 17.0978,6.23462 33.81519,23.68804 46.62838,48.6813 3.76529,7.34451 7.48828,17.39518 6.72595,18.15751 -0.17456,0.17455 -1.07762,-1.27685 -2.00679,-3.22535 z"
       id="path78"
       inkscape:connector-curvature="0"
       sodipodi:nodetypes="sscscscsssscsccccccssssscccc" />
    <path
       style="display:none;fill:#a2b345"
       d="m 397.59311,485.22458 c -1.64408,-2.00561 -3.12644,-8.68576 -4.17374,-18.8086 -2.17767,-21.04869 3.06749,-45.07149 15.10731,-69.1914 4.00006,-8.0135 6.10536,-10.60232 3.25291,-4 -8.11597,18.78532 -11.30938,28.86516 -13.45356,42.46543 -1.66379,10.55326 -0.73703,32.17306 1.77067,41.30689 1.06039,3.86227 1.74383,7.57477 1.51875,8.25 -0.52936,1.58809 -2.71216,1.57598 -4.02234,-0.0223 z m 121.88036,-97.85777 c -12.26621,-1.54059 -24.25665,-9.54952 -47.09468,-31.45655 -7.67423,-7.36138 -15.09002,-13.66967 -16.47952,-14.01842 -1.38951,-0.34874 -2.52638,-1.03027 -2.52638,-1.51451 0,-1.34892 14.64601,-8.40702 22.43261,-10.81055 9.83233,-3.03501 22.45288,-3.76133 30.30204,-1.7439 10.38993,2.67046 15.83406,6.14821 28.15727,17.9871 6.39173,6.14053 16.00585,15.31082 21.36471,20.37842 5.35885,5.0676 9.74337,9.44595 9.74337,9.72968 0,2.02742 -22.36175,10.19569 -30.39104,11.1012 -2.80993,0.31689 -6.00896,0.70556 -7.10896,0.86372 -1.1,0.15816 -4.87974,-0.0741 -8.39942,-0.51619 z m -90.10058,-57.0609 c -1.61296,-0.67222 -8.88671,-0.82554 -20.5,-0.43212 -25.87551,0.87658 -40.68159,-1.02193 -52,-6.66769 -11.6014,-5.78691 -28.08936,-24.93815 -37.33343,-43.36384 l -3.07655,-6.13231 12.20499,-0.63318 c 6.71274,-0.34825 20.52999,-0.70026 30.70499,-0.78223 16.88084,-0.136 18.99413,0.0433 24.14582,2.04837 8.67634,3.37692 16.62329,9.04323 24.85595,17.72273 8.45111,8.9098 13.08367,15.5387 20.11545,28.78391 6.08932,11.46999 6.10449,11.63256 0.88278,9.45636 z"
       id="path76"
       inkscape:connector-curvature="0"
       sodipodi:nodetypes="csssssccccscsccsssssccssscsscssc"
       inkscape:label="path76" />
  </g>
</svg>
